<svg width="18" height="11" viewBox="0 0 18 11" fill="none" xmlns="http://www.w3.org/2000/svg">
<path d="M15.4178 1.72707C15.4178 0.899239 14.6405 0.221924 13.6904 0.221924H11.0992V1.72707H13.6904V3.72138L10.6846 6.99507H7.64435V3.23221H4.18949C2.28067 3.23221 0.734619 4.57932 0.734619 6.2425V8.50022H2.46205C2.46205 9.74949 3.61943 10.7579 5.0532 10.7579C6.48697 10.7579 7.64435 9.74949 7.64435 8.50022H11.5138L15.4178 4.24819V1.72707ZM5.0532 9.25279C4.57816 9.25279 4.18949 8.91413 4.18949 8.50022H5.91692C5.91692 8.91413 5.52825 9.25279 5.0532 9.25279Z" fill="black"/>
<path d="M7.64439 0.974487H3.32581V2.47961H7.64439V0.974487Z" fill="black"/>
<path d="M15.4178 6.24249C13.984 6.24249 12.8267 7.25093 12.8267 8.5002C12.8267 9.74946 13.984 10.7579 15.4178 10.7579C16.8516 10.7579 18.009 9.74946 18.009 8.5002C18.009 7.25093 16.8516 6.24249 15.4178 6.24249ZM15.4178 9.25277C14.9428 9.25277 14.5541 8.91411 14.5541 8.5002C14.5541 8.08629 14.9428 7.74763 15.4178 7.74763C15.8929 7.74763 16.2815 8.08629 16.2815 8.5002C16.2815 8.91411 15.8929 9.25277 15.4178 9.25277Z" fill="black"/>
</svg>
